<?xml version="1.0" encoding="UTF-8" standalone="no"?>
<!-- Created with Inkscape (http://www.inkscape.org/) -->

<svg
   xmlns:dc="http://purl.org/dc/elements/1.1/"
   xmlns:cc="http://creativecommons.org/ns#"
   xmlns:rdf="http://www.w3.org/1999/02/22-rdf-syntax-ns#"
   xmlns:svg="http://www.w3.org/2000/svg"
   xmlns="http://www.w3.org/2000/svg"
   xmlns:sodipodi="http://sodipodi.sourceforge.net/DTD/sodipodi-0.dtd"
   xmlns:inkscape="http://www.inkscape.org/namespaces/inkscape"
   width="512mm"
   height="512mm"
   viewBox="0 0 512 512"
   version="1.1"
   id="svg1128"
   inkscape:version="0.92.3 (2405546, 2018-03-11)"
   sodipodi:docname="cap.svg">
  <defs
     id="defs1122" />
  <sodipodi:namedview
     id="base"
     pagecolor="#ffffff"
     bordercolor="#666666"
     borderopacity="1.0"
     inkscape:pageopacity="0.0"
     inkscape:pageshadow="2"
     inkscape:zoom="0.36"
     inkscape:cx="396.85039"
     inkscape:cy="1116.8154"
     inkscape:document-units="mm"
     inkscape:current-layer="layer1"
     showgrid="false"
     inkscape:window-width="1853"
     inkscape:window-height="1025"
     inkscape:window-x="67"
     inkscape:window-y="27"
     inkscape:window-maximized="1" />
  <metadata
     id="metadata1125">
    <rdf:RDF>
      <cc:Work
         rdf:about="">
        <dc:format>image/svg+xml</dc:format>
        <dc:type
           rdf:resource="http://purl.org/dc/dcmitype/StillImage" />
        <dc:title></dc:title>
      </cc:Work>
    </rdf:RDF>
  </metadata>
  <g
     inkscape:label="Capa 1"
     inkscape:groupmode="layer"
     id="layer1"
     transform="translate(0,215)">
    <g
       transform="matrix(3.8381996,0,0,-3.8381996,-1770.4295,1472.6877)"
       id="g4988">
      <path
         inkscape:connector-curvature="0"
         id="path852"
         style="fill:#ff7415;fill-opacity:1;fill-rule:nonzero;stroke:none"
         d="m 512,339 h 4 v 12 h -4 z" />
      <path
         inkscape:connector-curvature="0"
         id="path854"
         style="fill:#ff7415;fill-opacity:1;fill-rule:nonzero;stroke:none"
         d="m 500,344 h 4 v 12 h -4 z" />
      <path
         inkscape:connector-curvature="0"
         id="path856"
         style="fill:#ff7415;fill-opacity:1;fill-rule:nonzero;stroke:none"
         d="m 490,348 h 4 v 12 h -4 z" />
      <path
         inkscape:connector-curvature="0"
         id="path858"
         style="fill:#ff7415;fill-opacity:1;fill-rule:nonzero;stroke:none"
         d="m 540,339 h 4 v 12 h -4 z" />
      <path
         inkscape:connector-curvature="0"
         id="path860"
         style="fill:#ff7415;fill-opacity:1;fill-rule:nonzero;stroke:none"
         d="m 552,344 h 4 v 12 h -4 z" />
      <path
         inkscape:connector-curvature="0"
         id="path862"
         style="fill:#ff7415;fill-opacity:1;fill-rule:nonzero;stroke:none"
         d="m 562,348 h 4 v 12 h -4 z" />
      <path
         inkscape:connector-curvature="0"
         id="path864"
         style="fill:#ff7415;fill-opacity:1;fill-rule:nonzero;stroke:none"
         d="m 580,346 h 10 v 4 h -10 z" />
      <path
         inkscape:connector-curvature="0"
         id="path866"
         style="fill:#ff7415;fill-opacity:1;fill-rule:nonzero;stroke:none"
         d="m 580,340 h 10 v 4 h -10 z" />
      <g
         transform="translate(486,392)"
         id="g868">
        <path
           inkscape:connector-curvature="0"
           id="path870"
           style="fill:#e0e0e0;fill-opacity:1;fill-rule:nonzero;stroke:none"
           d="M 0,0 36,15 V 2 C 36,0.9 35.1,0 34,0 Z" />
      </g>
      <g
         transform="translate(534,394)"
         id="g872">
        <path
           inkscape:connector-curvature="0"
           id="path874"
           style="fill:#e0e0e0;fill-opacity:1;fill-rule:nonzero;stroke:none"
           d="M 0,0 C 0,-1.1 0.9,-2 2,-2 H 36 L 0,13 Z" />
      </g>
      <g
         transform="translate(570,355.2822)"
         id="g876">
        <path
           inkscape:connector-curvature="0"
           id="path878"
           style="fill:#262626;fill-opacity:1;fill-rule:nonzero;stroke:none"
           d="m 0,0 c 0,-1.37 -1.17,-3.116 -2.455,-3.662 l -34.819,-14.813 c -0.766,-0.326 -1.716,-0.54 -2.726,-0.668 v 11.861 h -4 v -11.861 c -1.01,0.128 -1.96,0.342 -2.726,0.668 L -81.545,-3.663 C -82.83,-3.116 -84,-1.37 -84,0 v 15.647 l 35.691,-15.756 c 1.712,-0.757 3.953,-1.173 6.309,-1.173 2.356,0 4.597,0.416 6.309,1.172 L 0,15.647 Z m -102,28.69 v 4.055 c 0,0.325 0.354,0.88 0.642,1.007 l 54.665,24.135 c 1.197,0.528 2.907,0.831 4.693,0.831 1.786,0 3.496,-0.303 4.693,-0.832 L 17.358,33.752 C 17.646,33.625 18,33.07 18,32.745 V 28.69 c 0,-0.318 -0.359,-0.882 -0.642,-1.006 L -37.307,3.549 C -38.504,3.021 -40.214,2.718 -42,2.718 c -1.786,0 -3.496,0.303 -4.693,0.832 l -54.665,24.134 C -101.646,27.811 -102,28.365 -102,28.69 M 18,-16.282 c 0,-1.655 -1.346,-3 -3,-3 -1.654,0 -3,1.345 -3,3 v 12 c 0,1.654 1.346,3 3,3 1.654,0 3,-1.346 3,-3 z m 0.973,40.305 C 20.698,24.783 22,26.79 22,28.69 v 4.055 c 0,1.899 -1.301,3.905 -3.026,4.667 l -54.665,24.133 c -1.712,0.757 -3.953,1.173 -6.309,1.173 -2.356,0 -4.597,-0.416 -6.309,-1.172 L -102.974,37.412 C -104.699,36.65 -106,34.644 -106,32.745 V 28.69 c 0,-1.898 1.301,-3.905 3.026,-4.667 L -88,17.413 V 0 c 0,-2.951 2.147,-6.177 4.889,-7.344 l 34.819,-14.812 c 1.765,-0.75 4.028,-1.125 6.292,-1.125 2.264,0 4.527,0.375 6.292,1.125 L -0.889,-7.343 C 1.853,-6.177 4,-2.951 4,0 v 17.413 l 9,3.973 V 6.533 C 11.839,6.119 11,5.02 11,3.718 V 1.454 C 9.189,0.187 8,-1.91 8,-4.282 v -12 c 0,-3.86 3.141,-7 7,-7 3.859,0 7,3.14 7,7 v 12 c 0,2.372 -1.189,4.469 -3,5.736 v 2.264 c 0,1.302 -0.839,2.401 -2,2.815 v 16.62 z" />
      </g>
      <path
         inkscape:connector-curvature="0"
         id="path880"
         style="fill:#262626;fill-opacity:1;fill-rule:nonzero;stroke:none"
         d="m 530,407 h -4 v -42 h 4 z" />
      <path
         inkscape:connector-curvature="0"
         id="path882"
         style="fill:#262626;fill-opacity:1;fill-rule:nonzero;stroke:none"
         d="m 474,384 h 48 v 4 h -48 z" />
      <path
         inkscape:connector-curvature="0"
         id="path884"
         style="fill:#262626;fill-opacity:1;fill-rule:nonzero;stroke:none"
         d="m 582,388 h -48 v -4 h 48 z" />
      <g
         transform="translate(538,376)"
         id="g886">
        <path
           inkscape:connector-curvature="0"
           id="path888"
           style="fill:#262626;fill-opacity:1;fill-rule:nonzero;stroke:none"
           d="M 0,0 H 7 V 4 H -4 V -7 h 4 z" />
      </g>
      <g
         transform="translate(511,376)"
         id="g890">
        <path
           inkscape:connector-curvature="0"
           id="path892"
           style="fill:#262626;fill-opacity:1;fill-rule:nonzero;stroke:none"
           d="m 0,0 h 7 v -7 h 4 V 4 H 0 Z" />
      </g>
      <path
         inkscape:connector-curvature="0"
         id="path894"
         style="fill:#262626;fill-opacity:1;fill-rule:nonzero;stroke:none"
         d="m 549,376 h 8 v 4 h -8 z" />
      <path
         inkscape:connector-curvature="0"
         id="path896"
         style="fill:#262626;fill-opacity:1;fill-rule:nonzero;stroke:none"
         d="m 499,376 h 8 v 4 h -8 z" />
    </g>
  </g>
</svg>
